<svg xmlns="http://www.w3.org/2000/svg"  viewBox="0 0 100 100" width="100px" height="100px"><path fill="#c7ede6" d="M88.049,55.995c0.3-0.616,0.566-1.264,0.796-1.943c2.633-7.77-1.349-17.078-9.733-19.325c-0.906-11.384-8.906-19.193-17.941-20.526c-10.341-1.525-19.814,5.044-22.966,15.485c-3.799-1.346-7.501-1.182-10.99,0.857c-1.583,0.732-3.031,1.812-4.33,3.233c-1.907,2.086-3.147,4.719-3.652,7.495c-0.748,0.118-1.483,0.236-2.176,0.484c-4.04,1.449-6.589,4.431-7.288,8.923c-0.435,2.797,0.443,5.587,0.933,6.714c1.935,4.455,6.422,6.98,10.981,6.312c0.227-0.033,0.557,0.069,0.752,0.233c0.241,7.12,3.698,13.417,8.884,17.014c8.321,5.772,19.027,3.994,25.781-3.921c2.894,2.96,6.338,4.398,10.384,3.876c4.023-0.519,7.147-2.739,9.426-6.349c1.053,0.283,2.051,0.691,3.083,0.804c4.042,0.442,7.324-1.165,9.732-4.8c0.922-1.391,1.794-3.194,1.794-6.354C91.519,60.952,90.226,57.985,88.049,55.995z"/><path fill="#fdfcef" d="M76.155,49.367c0,0,11.691,0,11.762,0c2.7,0,4.888-2.189,4.888-4.889c0-2.355-1.666-4.321-3.884-4.784c0.026-0.206,0.043-0.415,0.043-0.628c0-2.796-2.267-5.063-5.063-5.063c-1.651,0-3.113,0.794-4.037,2.017c-0.236-3.113-3.017-5.514-6.27-5.116c-2.379,0.291-4.346,2.13-4.784,4.486c-0.14,0.756-0.126,1.489,0.014,2.177c-0.638-0.687-1.546-1.119-2.557-1.119c-1.85,0-3.361,1.441-3.48,3.261c-0.84-0.186-1.754-0.174-2.717,0.188c-1.84,0.691-3.15,2.423-3.227,4.387c-0.109,2.789,2.12,5.085,4.885,5.085c0.21,0,0.948,0,1.118,0h10.151"/><path fill="#472b29" d="M87.917,49.867H76.155c-0.276,0-0.5-0.224-0.5-0.5s0.224-0.5,0.5-0.5h11.762c2.419,0,4.388-1.969,4.388-4.389c0-2.066-1.466-3.873-3.486-4.295c-0.255-0.053-0.426-0.292-0.394-0.55c0.023-0.187,0.039-0.375,0.039-0.567c0-2.516-2.047-4.563-4.563-4.563c-1.438,0-2.765,0.663-3.638,1.818c-0.125,0.166-0.339,0.24-0.54,0.178c-0.199-0.059-0.342-0.234-0.357-0.441c-0.104-1.377-0.779-2.671-1.851-3.549c-1.082-0.887-2.451-1.281-3.86-1.109c-2.166,0.265-3.956,1.943-4.353,4.081c-0.125,0.667-0.12,1.335,0.012,1.986c0.045,0.219-0.062,0.442-0.261,0.544c-0.198,0.102-0.443,0.059-0.595-0.104c-0.574-0.619-1.352-0.959-2.19-0.959c-1.569,0-2.878,1.227-2.981,2.793c-0.01,0.146-0.082,0.28-0.199,0.367c-0.117,0.087-0.267,0.119-0.408,0.088c-0.841-0.186-1.638-0.131-2.433,0.167c-1.669,0.626-2.836,2.209-2.903,3.938c-0.047,1.207,0.387,2.35,1.222,3.218c0.835,0.868,1.959,1.347,3.164,1.347h11.269c0.276,0,0.5,0.224,0.5,0.5s-0.224,0.5-0.5,0.5H61.729c-1.479,0-2.859-0.587-3.884-1.654c-1.025-1.066-1.558-2.469-1.5-3.95c0.083-2.126,1.51-4.069,3.551-4.836c0.8-0.3,1.628-0.4,2.468-0.298c0.376-1.823,1.997-3.182,3.905-3.182c0.684,0,1.354,0.179,1.944,0.509c0-0.385,0.035-0.772,0.107-1.159c0.476-2.562,2.62-4.573,5.215-4.891c1.679-0.207,3.319,0.266,4.615,1.328c1.004,0.823,1.716,1.951,2.038,3.193c1.012-0.916,2.319-1.425,3.714-1.425c3.067,0,5.563,2.496,5.563,5.563c0,0.083-0.002,0.167-0.007,0.249c2.254,0.672,3.848,2.777,3.848,5.164C93.305,47.449,90.888,49.867,87.917,49.867z"/><path fill="#fdfcef" d="M73.322,38.598c-1.808-0.119-3.365,1.13-3.476,2.789c-0.014,0.206-0.005,0.409,0.025,0.606c-0.349-0.394-0.865-0.661-1.458-0.7c-1.085-0.071-2.022,0.645-2.158,1.62c-0.197-0.054-0.403-0.09-0.616-0.104c-1.582-0.104-2.944,0.989-3.042,2.441"/><path fill="#472b29" d="M62.598,45.499c-0.006,0-0.012,0-0.017,0c-0.138-0.009-0.242-0.128-0.233-0.266c0.106-1.587,1.592-2.791,3.307-2.674c0.136,0.009,0.272,0.027,0.409,0.053c0.273-0.968,1.262-1.645,2.366-1.568c0.425,0.028,0.823,0.161,1.163,0.382c0-0.019,0.002-0.037,0.003-0.055c0.122-1.793,1.801-3.142,3.743-3.022c0.138,0.009,0.242,0.128,0.233,0.266c-0.009,0.138-0.124,0.248-0.266,0.233c-1.652-0.115-3.108,1.037-3.21,2.557c-0.012,0.185-0.004,0.37,0.023,0.551c0.017,0.11-0.041,0.217-0.141,0.265c-0.099,0.046-0.219,0.022-0.293-0.061c-0.318-0.359-0.787-0.584-1.288-0.617c-0.93-0.065-1.775,0.555-1.894,1.405c-0.01,0.071-0.05,0.134-0.11,0.174c-0.061,0.04-0.134,0.051-0.204,0.033c-0.188-0.051-0.379-0.084-0.567-0.096c-1.434-0.107-2.687,0.896-2.775,2.208C62.838,45.398,62.728,45.499,62.598,45.499z"/><path fill="#fdfcef" d="M89.896,40.266c-1.699-0.801-3.664-0.234-4.389,1.267c-0.09,0.186-0.157,0.379-0.201,0.574"/><path fill="#472b29" d="M85.306,42.357c-0.018,0-0.037-0.002-0.056-0.006c-0.134-0.03-0.219-0.165-0.188-0.299c0.049-0.214,0.123-0.425,0.22-0.626c0.783-1.622,2.9-2.243,4.72-1.384c0.125,0.059,0.179,0.208,0.12,0.333c-0.059,0.126-0.209,0.178-0.333,0.12c-1.574-0.741-3.394-0.227-4.057,1.149c-0.081,0.167-0.142,0.342-0.183,0.521C85.523,42.278,85.42,42.357,85.306,42.357z"/><path fill="#fff" d="M70.892 21.754h-10.03c-.276 0-.5-.224-.5-.5s.224-.5.5-.5h10.03c.276 0 .5.224.5.5S71.169 21.754 70.892 21.754zM73.773 21.754h-1.446c-.276 0-.5-.224-.5-.5s.224-.5.5-.5h1.446c.276 0 .5.224.5.5S74.05 21.754 73.773 21.754zM77.828 21.754h-2.546c-.276 0-.5-.224-.5-.5s.224-.5.5-.5h2.546c.276 0 .5.224.5.5S78.104 21.754 77.828 21.754zM75.802 18.024h-9.616c-.276 0-.5-.224-.5-.5s.224-.5.5-.5h9.616c.276 0 .5.224.5.5S76.078 18.024 75.802 18.024zM64.454 18.024h-.58c-.276 0-.5-.224-.5-.5s.224-.5.5-.5h.58c.276 0 .5.224.5.5S64.731 18.024 64.454 18.024zM62.078 18.024h-1.456c-.276 0-.5-.224-.5-.5s.224-.5.5-.5h1.456c.276 0 .5.224.5.5S62.354 18.024 62.078 18.024zM73.239 19.889h-5.027c-.276 0-.5-.224-.5-.5s.224-.5.5-.5h5.027c.276 0 .5.224.5.5S73.515 19.889 73.239 19.889z"/><path fill="#fff" d="M73.239 18.024h-1.257c-.276 0-.5-.224-.5-.5s.224-.5.5-.5h1.257c.276 0 .5.224.5.5S73.515 18.024 73.239 18.024zM66.757 19.889h-1.759c-.276 0-.5-.224-.5-.5s.224-.5.5-.5h1.759c.276 0 .5.224.5.5S67.033 19.889 66.757 19.889z"/><g><path fill="#88ae45" d="M66.161,72.964H36.448c-3.766,0-6.847-3.081-6.847-6.847V36.404c0-3.766,3.081-6.847,6.847-6.847h29.713c3.766,0,6.847,3.081,6.847,6.847v29.713C73.008,69.883,69.927,72.964,66.161,72.964z"/><path fill="#472b29" d="M66.161,73.664H36.448c-4.162,0-7.547-3.386-7.547-7.547V36.404c0-4.162,3.386-7.547,7.547-7.547h29.713c4.162,0,7.547,3.386,7.547,7.547v29.713C73.708,70.279,70.322,73.664,66.161,73.664z M36.448,30.257c-3.39,0-6.147,2.757-6.147,6.147v29.713c0,3.39,2.757,6.147,6.147,6.147h29.713c3.39,0,6.147-2.757,6.147-6.147V36.404c0-3.39-2.757-6.147-6.147-6.147H36.448z"/><path fill="#fdfcee" d="M64.358,69.864H38.25c-3.052,0-5.549-2.497-5.549-5.549V38.206c0-3.052,2.497-5.549,5.549-5.549h26.109c3.052,0,5.549,2.497,5.549,5.549v26.109C69.907,67.367,67.41,69.864,64.358,69.864z"/><path fill="#472b29" d="M64.253 70.214H38.355c-3.311 0-6.004-2.693-6.004-6.004V38.311c0-3.311 2.693-6.004 6.004-6.004h24.663c.193 0 .35.157.35.35s-.157.35-.35.35H38.355c-2.924 0-5.304 2.379-5.304 5.304V64.21c0 2.924 2.379 5.304 5.304 5.304h25.898c2.924 0 5.304-2.379 5.304-5.304V49.883c0-.193.157-.35.35-.35s.35.157.35.35V64.21C70.257 67.52 67.564 70.214 64.253 70.214zM69.907 48.165c-.193 0-.35-.157-.35-.35V45.06c0-.193.157-.35.35-.35s.35.157.35.35v2.756C70.257 48.009 70.1 48.165 69.907 48.165z"/><g><path fill="#472b29" d="M69.907,44.032c-0.193,0-0.35-0.157-0.35-0.35v-1.378c0-0.193,0.157-0.35,0.35-0.35s0.35,0.157,0.35,0.35v1.378C70.257,43.875,70.1,44.032,69.907,44.032z"/></g></g><g><path fill="#fdfcef" d="M39.991,75.732c1.883,0,3.517,0,3.54,0c2.11,0,3.821-1.674,3.821-3.739c0-1.802-1.302-3.305-3.035-3.66c0.02-0.158,0.034-0.317,0.034-0.48c0-2.139-1.772-3.873-3.957-3.873c-1.29,0-2.433,0.607-3.155,1.543c-0.185-2.381-2.358-4.218-4.9-3.913c-1.859,0.223-3.397,1.629-3.739,3.431c-0.11,0.578-0.098,1.139,0.011,1.665c-0.498-0.525-1.208-0.856-1.998-0.856c-1.446,0-2.627,1.102-2.72,2.494c-0.657-0.142-1.371-0.133-2.123,0.143c-1.438,0.528-2.462,1.853-2.522,3.356c-0.085,2.133,1.657,3.889,3.818,3.889c0.164,0,0.741,0,0.874,0h7.934 M33.514,75.732h0.36"/><path fill="#472b29" d="M43.531,76.231h-3.54c-0.276,0-0.5-0.224-0.5-0.5s0.224-0.5,0.5-0.5h3.54c1.831,0,3.321-1.453,3.321-3.239c0-1.524-1.108-2.857-2.636-3.17c-0.256-0.052-0.429-0.293-0.396-0.553c0.018-0.137,0.03-0.276,0.03-0.417c0-1.86-1.551-3.373-3.457-3.373c-1.092,0-2.098,0.491-2.76,1.348c-0.126,0.164-0.34,0.233-0.539,0.173c-0.198-0.059-0.339-0.234-0.355-0.44c-0.079-1.019-0.565-1.943-1.369-2.603c-0.828-0.68-1.884-0.982-2.973-0.853c-1.646,0.197-3.006,1.442-3.307,3.028c-0.094,0.495-0.091,0.989,0.009,1.471c0.045,0.219-0.06,0.441-0.258,0.544c-0.197,0.104-0.44,0.064-0.594-0.099c-0.428-0.451-1.009-0.7-1.635-0.7c-1.169,0-2.145,0.891-2.221,2.028c-0.01,0.146-0.082,0.279-0.198,0.366c-0.116,0.088-0.264,0.12-0.407,0.089c-0.639-0.14-1.242-0.099-1.845,0.124c-1.262,0.464-2.144,1.631-2.195,2.906c-0.035,0.875,0.283,1.708,0.895,2.345c0.635,0.661,1.496,1.024,2.423,1.024h8.807c0.276,0,0.5,0.224,0.5,0.5s-0.224,0.5-0.5,0.5h-8.807c-1.185,0-2.331-0.485-3.145-1.332c-0.802-0.835-1.219-1.928-1.173-3.078c0.067-1.674,1.212-3.203,2.849-3.805c0.61-0.225,1.241-0.307,1.88-0.244c0.344-1.396,1.629-2.424,3.135-2.424c0.493,0,0.977,0.113,1.414,0.323c0.009-0.242,0.037-0.484,0.083-0.726c0.381-2.009,2.096-3.586,4.17-3.834c1.361-0.161,2.685,0.217,3.726,1.072c0.748,0.614,1.278,1.41,1.546,2.302c0.791-0.648,1.786-1.007,2.842-1.007c2.458,0,4.457,1.962,4.457,4.373c0,0.034,0,0.068-0.001,0.102c1.764,0.555,3.003,2.188,3.003,4.038C47.852,74.33,45.913,76.231,43.531,76.231z M33.873,76.231h-0.36c-0.276,0-0.5-0.224-0.5-0.5s0.224-0.5,0.5-0.5h0.36c0.276,0,0.5,0.224,0.5,0.5S34.15,76.231,33.873,76.231z"/><path fill="#472b29" d="M41.824,70.429c-0.018,0-0.036-0.002-0.054-0.006c-0.135-0.03-0.22-0.164-0.19-0.298c0.037-0.165,0.094-0.327,0.17-0.48c0.605-1.224,2.272-1.676,3.722-1.006c0.125,0.058,0.18,0.207,0.122,0.332c-0.058,0.125-0.207,0.179-0.332,0.122c-1.206-0.559-2.579-0.21-3.063,0.774c-0.058,0.118-0.102,0.241-0.13,0.367C42.042,70.35,41.938,70.429,41.824,70.429z"/><g><path fill="#472b29" d="M36.665,76.231h-1.107c-0.276,0-0.5-0.224-0.5-0.5s0.224-0.5,0.5-0.5h1.107c0.276,0,0.5,0.224,0.5,0.5S36.941,76.231,36.665,76.231z"/></g></g><g><path fill="#88ae45" d="M60.572 58.992L55.125 58.992 51.41 53.738 47.507 58.992 42.036 58.992 48.823 50.457 43.343 42.993 48.868 42.993 51.435 47.051 54.17 42.993 59.792 42.993 54.047 50.457 60.572 58.992"/><path fill="#472b29" d="M60.572,59.317h-5.446c-0.105,0-0.205-0.051-0.265-0.138l-3.456-4.888l-3.637,4.895c-0.061,0.083-0.158,0.131-0.261,0.131h-5.47c-0.125,0-0.238-0.072-0.292-0.184s-0.04-0.246,0.038-0.343l6.632-8.341l-5.333-7.264c-0.072-0.099-0.083-0.23-0.028-0.339c0.056-0.109,0.167-0.178,0.29-0.178h5.525c0.111,0,0.215,0.057,0.275,0.151l2.301,3.639l2.457-3.646c0.061-0.09,0.162-0.144,0.27-0.144h5.622c0.124,0,0.237,0.071,0.292,0.182c0.055,0.111,0.042,0.244-0.034,0.342l-5.593,7.267l6.373,8.337c0.075,0.098,0.088,0.23,0.033,0.341C60.808,59.247,60.695,59.317,60.572,59.317z M55.294,58.667h4.62l-6.125-8.013c-0.089-0.117-0.089-0.279,0.001-0.396l5.342-6.941h-4.789l-2.639,3.916c-0.061,0.091-0.125,0.151-0.274,0.144c-0.109-0.002-0.211-0.059-0.27-0.151l-2.471-3.908h-4.704l5.101,6.947c0.086,0.118,0.083,0.28-0.008,0.395l-6.367,8.008h4.633l3.807-5.123c0.062-0.083,0.19-0.124,0.265-0.131c0.104,0.001,0.201,0.053,0.261,0.138L55.294,58.667z"/></g><g><path fill="#fff" d="M17.313 49.915H7.282c-.276 0-.5-.224-.5-.5s.224-.5.5-.5h10.031c.276 0 .5.224.5.5S17.589 49.915 17.313 49.915zM20.194 49.915h-1.446c-.276 0-.5-.224-.5-.5s.224-.5.5-.5h1.446c.276 0 .5.224.5.5S20.47 49.915 20.194 49.915zM24.248 49.915h-2.546c-.276 0-.5-.224-.5-.5s.224-.5.5-.5h2.546c.276 0 .5.224.5.5S24.525 49.915 24.248 49.915zM24.248 51.78h-9.616c-.276 0-.5-.224-.5-.5s.224-.5.5-.5h9.616c.276 0 .5.224.5.5S24.525 51.78 24.248 51.78zM12.901 51.78h-.58c-.276 0-.5-.224-.5-.5s.224-.5.5-.5h.58c.276 0 .5.224.5.5S13.177 51.78 12.901 51.78zM10.524 51.78H9.068c-.276 0-.5-.224-.5-.5s.224-.5.5-.5h1.456c.276 0 .5.224.5.5S10.8 51.78 10.524 51.78zM19.66 48.05h-5.027c-.276 0-.5-.224-.5-.5s.224-.5.5-.5h5.027c.276 0 .5.224.5.5S19.936 48.05 19.66 48.05zM19.66 46.185h-1.257c-.276 0-.5-.224-.5-.5s.224-.5.5-.5h1.257c.276 0 .5.224.5.5S19.936 46.185 19.66 46.185zM16.391 53.645h-1.759c-.276 0-.5-.224-.5-.5s.224-.5.5-.5h1.759c.276 0 .5.224.5.5S16.667 53.645 16.391 53.645z"/></g></svg>