<svg xmlns="http://www.w3.org/2000/svg" version="1.1" xmlns:xlink="http://www.w3.org/1999/xlink" xmlns:svgjs="http://svgjs.dev/svgjs" width="1440" height="1080" preserveAspectRatio="none" viewBox="0 0 1440 1080"><g mask="url(&quot;#SvgjsMask1072&quot;)" fill="none"><rect width="1440" height="1080" x="0" y="0" fill="rgba(170, 179, 209, 1)"></rect><path d="M0,529.662C114.727,524.299,231.642,569.675,337.548,525.235C452.102,477.167,553.731,389.448,604.431,276.035C654.979,162.96,630.659,34.45,611.66,-87.943C592.852,-209.102,575.565,-336.495,495,-428.92C414.53,-521.236,291.001,-556.374,173.438,-590.677C56.052,-624.928,-65.356,-656.164,-184.127,-627.078C-305.738,-597.296,-430.292,-535.63,-493.256,-427.409C-553.964,-323.065,-485.303,-191.664,-506.588,-72.836C-529.026,52.427,-649.682,159.525,-620.581,283.41C-591.059,409.087,-478.454,510.155,-358.458,557.771C-244.753,602.89,-122.197,535.374,0,529.662" fill="#7180b2"></path><path d="M1440 1664.095C1550.417 1665.114 1657.081 1621.6509999999998 1746.172 1556.414 1832.0149999999999 1493.556 1879.054 1397.057 1931.277 1304.359 1988.3229999999999 1203.101 2062.397 1106.295 2065.212 990.108 2068.253 864.581 2033.23 731.982 1947.365 640.366 1862.508 549.825 1730.916 527.99 1609.246 503.602 1496.448 480.99199999999996 1384.906 487.929 1271.1100000000001 504.81500000000005 1140.324 524.222 987.6949999999999 513.295 896.806 609.3199999999999 805.661 705.616 816.225 857.1990000000001 812.136 989.727 808.421 1110.148 813.886 1234.113 874.315 1338.34 932.027 1437.88 1037.728 1493.38 1137.437 1550.798 1232.692 1605.6509999999998 1330.085 1663.0810000000001 1440 1664.095" fill="#e3e6f0"></path></g><defs><mask id="SvgjsMask1072"><rect width="1440" height="1080" fill="#ffffff"></rect></mask></defs></svg>