<svg xmlns="http://www.w3.org/2000/svg" version="1.1" xmlns:xlink="http://www.w3.org/1999/xlink" xmlns:svgjs="http://svgjs.dev/svgjs" width="1440" height="1080" preserveAspectRatio="none" viewBox="0 0 1440 1080"><g mask="url(&quot;#SvgjsMask1021&quot;)" fill="none"><rect width="1440" height="1080" x="0" y="0" fill="#0e2a47"></rect><path d="M720 1288.58C916.83 1285.89 1103.25 1201.61 1240.06 1060.06 1374.57 920.94 1443.08 733.53 1443.72 540 1444.4 345.76 1365.52 167.6 1243.63 16.37 1103.69-157.24 942.36-340.87 720-357.8 486.96-375.55 268.04-242.17 110.07-69.93-41.26 95.11-118 316.55-103.24 540-89.37 750.05 29.87 932.8 185.59 1074.41 333.22 1208.64 520.52 1291.3 720 1288.58" fill="#1c538e"></path><path d="M720 1024.37C847.36 1022.64 967.98 968.1 1056.51 876.51 1143.54 786.49 1187.87 665.22 1188.29 540 1188.73 414.31 1137.69 299.03 1058.82 201.18 968.27 88.85 863.88-29.98 720-40.93 569.21-52.42 427.55 33.89 325.34 145.34 227.42 252.13 177.77 395.42 187.31 540 196.29 675.92 273.44 794.17 374.2 885.8 469.73 972.65 590.93 1026.13 720 1024.37" fill="#2774c6"></path><path d="M720 760.17C777.89 759.38 832.72 734.59 872.96 692.96 912.52 652.04 932.67 596.92 932.86 540 933.06 482.87 909.86 430.47 874.01 385.99 832.85 334.93 785.4 280.92 720 275.94 651.46 270.72 587.07 309.95 540.61 360.61 496.1 409.15 473.53 474.28 477.87 540 481.95 601.78 517.02 655.53 562.82 697.18 606.24 736.66 661.33 760.97 720 760.17" fill="#488fdb"></path></g><defs><mask id="SvgjsMask1021"><rect width="1440" height="1080" fill="#ffffff"></rect></mask></defs></svg>