<svg xmlns="http://www.w3.org/2000/svg" shape-rendering="geometricPrecision" text-rendering="geometricPrecision" image-rendering="optimizeQuality" fill-rule="evenodd" clip-rule="evenodd" viewBox="0 0 424 511.543"><path fill="#262626" fill-rule="nonzero" d="M86.371 413.439c-11.766 0-11.766-17.89 0-17.89h102.733a129.853 129.853 0 00-.316 8.945c0 3.008.112 5.99.316 8.945H86.371zm23.751-229.721l8.129 22.068h3.301l8.129-22.068h28.673l-18.367 39.907 18.367 42.682h-29.335l-8.92-23.785h-3.171l-8.787 23.785H80.127l17.971-41.888-17.971-40.701h29.995zm110.667 82.589h-52.856v-82.589h26.429v61.446h26.427v21.143zm6.938-1.453l3.698-19.822c8.106 2.026 15.395 3.039 21.869 3.039 6.477 0 11.697-.264 15.659-.792v-8.589l-11.892-1.058c-10.746-.968-18.126-3.545-22.133-7.729-4.008-4.184-6.012-10.374-6.012-18.566 0-23.306 9.962-29.601 32.243-29.601 11.716 0 22.287 1.102 31.713 3.304l-3.304 19.161c-8.192-1.322-14.756-1.981-19.689-1.981s-9.117.219-12.554.659v8.458l9.514.925c11.54 1.145 19.513 3.897 23.918 8.258 4.405 4.362 6.608 10.418 6.608 18.17 0 5.549-.749 10.241-2.248 14.073-1.496 3.831-3.281 6.738-5.351 8.722-2.069 1.981-4.998 3.5-8.787 4.558-3.789 1.056-7.113 1.695-9.977 1.916-2.863.221-6.672.33-11.43.33-11.452 0-22.067-1.145-31.845-3.435zm38.082-240.595v29.103c0 65.658 15.314 69.469 69.082 69.469h22.031l-91.113-98.572zm94.336 115.919h-21.48c-61.025 0-90.202-4.092-90.202-86.277V17.347H56.817c-21.693 0-39.47 17.778-39.47 39.472v264.794h201.856a128.538 128.538 0 00-12.518 17.541H17.347v89.824c0 21.622 17.85 39.47 39.47 39.47h149.048a128.452 128.452 0 0012.01 17.347H56.817C25.626 485.795 0 460.171 0 428.978V56.819C0 25.553 25.55 0 56.817 0h206.336a8.656 8.656 0 016.926 3.454l105.073 113.675c2.191 2.367 2.339 4.663 2.339 7.517v166.861a127.423 127.423 0 00-17.346-7.709v-143.62z"/><path fill="red" d="M316.953 297.447c59.119 0 107.047 47.93 107.047 107.049 0 59.118-47.928 107.047-107.047 107.047-59.12 0-107.049-47.929-107.049-107.047 0-59.119 47.929-107.049 107.049-107.049z"/><path fill="#fff" fill-rule="nonzero" d="M334.51 399.621l17.723 6.198c11.721 4.5 23.776-3.795 14.691-14.12-11.057-12.716-27.851-30.19-40.069-41.828-7.589-7.585-11.99-7.651-19.605-.062-13.524 13.279-26.802 28.033-40.021 41.759-9.456 10.28 2.34 18.956 14.583 14.251l17.538-6.135c-1.284 16.628-2.886 32.525-3.857 49.142 0 3.059 2.558 5.504 5.543 5.735 10.534 0 21.291.247 31.797 0 2.982-.231 5.54-2.68 5.54-5.735l-3.863-49.205z"/></svg>